<?xml version="1.0" standalone="no"?>
<!DOCTYPE svg PUBLIC "-//W3C//DTD SVG 20010904//EN"
 "http://www.w3.org/TR/2001/REC-SVG-20010904/DTD/svg10.dtd">
<svg version="1.0" xmlns="http://www.w3.org/2000/svg"
 width="999.000000pt" height="679.000000pt" viewBox="0 0 999.000000 679.000000"
 preserveAspectRatio="xMidYMid meet">

<g transform="translate(0.000000,679.000000) scale(0.100000,-0.100000)"
fill="#000000" stroke="none">
<path d="M0 3395 l0 -3395 4995 0 4995 0 0 3395 0 3395 -4995 0 -4995 0 0
-3395z m5750 1780 c12 -15 7 -45 -8 -45 -20 0 -45 28 -39 44 8 20 31 21 47 1z
m-130 -87 c13 5 13 3 0 -10 -18 -17 -64 -31 -74 -21 -12 12 26 43 43 34 9 -5
23 -6 31 -3z m200 -1 c0 -7 -6 -22 -14 -33 -14 -18 -15 -18 -21 -1 -4 9 -5 24
-1 32 7 18 36 20 36 2z m-150 -1 c0 -11 -19 -15 -25 -6 -3 5 1 10 9 10 9 0 16
-2 16 -4z m-132 -42 c25 -7 30 -21 7 -21 -8 0 -15 4 -15 9 0 5 -4 7 -9 3 -5
-3 -12 -1 -16 5 -7 11 0 12 33 4z m205 -26 c39 -23 49 -48 18 -45 -11 0 -17 5
-14 10 3 6 -5 18 -18 28 -28 21 -19 25 14 7z m-230 -25 c-3 -7 -6 -13 -8 -13
-2 0 -5 6 -8 13 -3 8 1 14 8 14 7 0 11 -6 8 -14z m345 0 c-5 -25 -28 -28 -28
-4 0 12 6 21 16 21 9 0 14 -7 12 -17z m-388 -8 c-7 -8 -16 -12 -21 -9 -5 3 -9
0 -9 -5 0 -6 5 -11 12 -11 6 0 1 -11 -11 -24 -13 -14 -20 -29 -17 -35 4 -5 -2
-12 -12 -15 -10 -4 -19 -12 -19 -19 0 -6 -4 -25 -8 -42 -4 -16 -7 -38 -7 -47
1 -20 -16 -27 -51 -21 -22 4 -27 11 -27 34 0 43 137 209 173 209 5 0 4 -7 -3
-15z m85 -5 c-3 -5 -10 -10 -16 -10 -5 0 -9 5 -9 10 0 6 7 10 16 10 8 0 12 -4
9 -10z m15 -20 c0 -5 -5 -10 -11 -10 -5 0 -7 5 -4 10 3 6 8 10 11 10 2 0 4 -4
4 -10z m100 0 c0 -5 -5 -10 -11 -10 -5 0 -7 5 -4 10 3 6 8 10 11 10 2 0 4 -4
4 -10z m-50 -50 c0 -5 -5 -10 -11 -10 -5 0 -7 5 -4 10 3 6 8 10 11 10 2 0 4
-4 4 -10z m246 -5 c8 -21 -6 -41 -17 -24 -12 19 -11 39 1 39 6 0 13 -7 16 -15z
m-386 -45 c0 -12 -28 -25 -36 -17 -9 9 6 27 22 27 8 0 14 -5 14 -10z m80 0 c0
-5 -4 -10 -10 -10 -5 0 -10 5 -10 10 0 6 5 10 10 10 6 0 10 -4 10 -10z m162
-12 c-7 -7 -12 -8 -12 -2 0 14 12 26 19 19 2 -3 -1 -11 -7 -17z m149 -61 c-14
-14 -41 10 -34 29 5 13 8 12 24 -2 13 -12 16 -21 10 -27z m-2841 -7 l25 -8
-25 0 c-14 0 -36 4 -50 8 l-25 8 25 0 c14 0 36 -4 50 -8z m-95 -20 c7 -12 -2
-12 -30 0 -19 8 -19 9 2 9 12 1 25 -3 28 -9z m-45 -27 l25 -17 -25 -6 c-21 -5
-15 -9 40 -27 l65 -21 -79 6 c-71 5 -79 4 -73 -12 5 -13 2 -15 -17 -10 -13 3
-26 2 -29 -3 -3 -5 16 -9 43 -8 27 1 47 -2 44 -7 -3 -4 0 -8 5 -8 6 0 11 -4
11 -10 0 -12 -40 -13 -72 -1 -23 8 -204 -15 -313 -40 -73 -17 -257 -77 -275
-90 -12 -9 -11 -10 5 -4 48 17 57 15 16 -4 -23 -12 -48 -18 -54 -14 -5 3 -7 1
-3 -5 3 -6 -3 -14 -15 -17 -41 -13 -195 -125 -257 -186 -102 -100 -168 -207
-195 -314 -68 -270 16 -469 221 -524 123 -33 242 47 242 161 0 44 -4 54 -35
85 -36 36 -62 38 -95 7 -12 -12 -12 -18 -2 -34 10 -16 10 -20 -1 -20 -43 0
-49 65 -9 103 49 47 115 48 170 2 27 -22 29 -29 22 -55 -5 -17 -5 -28 0 -25 5
3 11 1 14 -4 3 -5 -1 -11 -9 -15 -8 -3 -15 -10 -15 -16 0 -6 5 -8 10 -5 12 8
13 -35 1 -67 -6 -16 -5 -32 5 -48 7 -14 13 -21 14 -17 0 5 -5 17 -10 27 -8 15
-6 24 9 39 11 11 21 32 24 48 3 24 4 23 6 -8 1 -26 -4 -39 -15 -43 -12 -4 -14
-13 -10 -32 8 -31 -1 -49 -18 -35 -8 7 -12 5 -12 -9 0 -10 5 -16 11 -14 5 3 2
-1 -7 -9 -10 -8 -14 -18 -10 -22 4 -5 2 -5 -5 -2 -6 4 -9 17 -6 30 3 12 2 19
-2 15 -4 -4 -8 -21 -7 -38 0 -16 -4 -30 -9 -30 -6 0 -7 5 -3 12 4 7 3 8 -5 4
-6 -4 -9 -12 -5 -17 8 -13 -70 -45 -129 -54 -100 -14 -229 34 -294 110 -71 82
-128 252 -118 352 9 102 30 186 61 251 l32 67 -45 -50 c-152 -170 -303 -483
-333 -693 -6 -43 -15 -102 -20 -132 -20 -130 8 -353 70 -540 95 -291 250 -497
495 -656 70 -45 85 -71 27 -47 -228 95 -450 273 -577 463 -240 360 -281 814
-114 1287 68 193 173 365 312 510 189 197 401 320 677 393 85 23 185 55 221
72 47 22 90 33 150 38 119 12 247 4 279 -17z m171 2 c24 -9 49 -13 57 -10 7 3
36 -5 63 -16 27 -12 58 -19 69 -16 12 3 33 -1 48 -9 15 -8 36 -14 47 -13 l20
0 -20 9 c-13 6 2 8 47 7 36 -1 64 -5 61 -10 -2 -4 8 -12 24 -17 15 -6 37 -15
48 -20 18 -9 18 -10 -2 -4 -14 3 -23 1 -23 -6 0 -7 -15 -2 -36 10 -30 19 -43
21 -87 15 -83 -11 -109 -8 -214 23 -71 21 -114 29 -149 26 -27 -2 -43 -1 -36
2 20 10 3 24 -31 25 -27 0 -29 2 -12 9 31 13 78 11 126 -5z m-755 -30 c-10 -8
-24 -11 -29 -8 -6 4 -2 10 9 14 31 12 40 9 20 -6z m3603 -11 c3 -16 1 -17 -13
-5 -19 16 -21 34 -3 29 6 -3 14 -13 16 -24z m-349 -28 c-1 -5 4 -13 12 -17 11
-7 11 -9 0 -9 -22 0 -53 20 -46 31 7 12 36 8 34 -5z m-3330 -6 c-19 -13 -30
-13 -30 0 0 6 10 10 23 10 18 0 19 -2 7 -10z m3014 -11 c-3 -5 -10 -7 -15 -3
-5 3 -7 10 -3 15 3 5 10 7 15 3 5 -3 7 -10 3 -15z m-2074 -9 c8 -5 12 -12 9
-15 -8 -8 -39 5 -39 16 0 11 11 11 30 -1z m70 0 c12 -8 11 -10 -7 -10 -12 0
-25 5 -28 10 -8 13 15 13 35 0z m-240 -10 c20 -6 14 -8 -27 -9 -28 -1 -55 4
-58 9 -7 12 48 12 85 0z m2581 -17 c13 -16 12 -17 -3 -4 -10 7 -18 15 -18 17
0 8 8 3 21 -13z m-2286 -11 c-3 -3 -11 0 -18 7 -9 10 -8 11 6 5 10 -3 15 -9
12 -12z m2182 5 c-7 -18 29 -41 37 -24 5 9 7 9 12 -1 3 -6 10 -10 15 -6 5 3 9
0 9 -5 0 -6 -5 -11 -10 -11 -7 0 -7 -6 0 -20 9 -16 8 -19 -6 -13 -13 5 -15 2
-9 -18 4 -13 4 -21 0 -17 -10 10 -37 -11 -29 -23 3 -5 -1 -9 -9 -9 -8 0 -20
-7 -27 -15 -7 -8 -20 -15 -30 -15 -10 0 -20 -7 -24 -15 -3 -8 -12 -15 -21 -15
-8 0 -15 -4 -15 -9 0 -9 -21 -19 -45 -22 -5 0 -18 -5 -27 -10 -10 -5 -27 -5
-42 1 -35 13 -34 55 0 106 27 40 71 84 85 84 5 0 20 12 34 27 14 15 25 22 25
15 0 -6 7 -12 16 -12 10 0 14 5 10 15 -4 12 0 14 19 9 15 -4 25 -2 25 5 0 6 3
11 6 11 3 0 4 -6 1 -13z m478 3 c-3 -5 -10 -10 -16 -10 -5 0 -9 5 -9 10 0 6 7
10 16 10 8 0 12 -4 9 -10z m-440 -10 c-3 -5 -11 -10 -16 -10 -6 0 -7 5 -4 10
3 6 11 10 16 10 6 0 7 -4 4 -10z m-1959 -19 c27 -5 58 -13 68 -17 14 -5 17 -4
12 4 -4 7 -5 12 -2 12 12 0 87 -33 83 -37 -2 -2 -16 1 -31 7 -24 9 -26 8 -17
-8 5 -9 19 -26 30 -36 12 -11 21 -22 21 -26 0 -3 -37 6 -82 21 -46 16 -92 28
-104 28 -11 1 -29 11 -40 23 -16 19 -16 20 -1 9 9 -8 34 -17 55 -22 20 -4 48
-10 62 -14 51 -13 -12 25 -67 41 -29 9 -53 17 -53 20 0 6 12 5 66 -5z m2382
-55 c3 -12 -1 -17 -10 -14 -7 3 -15 13 -16 22 -3 12 1 17 10 14 7 -3 15 -13
16 -22z m-2138 -50 c0 -11 -52 9 -67 26 -17 20 -17 20 25 -1 23 -12 42 -23 42
-25z m123 -13 c50 -27 105 -62 121 -78 17 -17 74 -62 126 -101 214 -158 482
-403 549 -501 l33 -48 -31 33 c-17 18 -31 29 -31 26 0 -4 -6 -1 -13 5 -8 6
-17 8 -20 5 -3 -4 -20 5 -37 20 -18 14 -36 24 -41 20 -5 -3 -8 -2 -7 3 4 13
-144 174 -156 170 -11 -4 -26 7 -91 66 -50 44 -81 50 -40 7 55 -57 8 -30 -71
41 -43 40 -81 74 -83 75 -2 2 0 4 6 4 5 0 20 -9 33 -20 13 -11 27 -20 32 -20
4 0 17 -9 29 -21 11 -11 24 -17 27 -13 4 3 1 9 -5 11 -7 3 -13 10 -13 18 0 7
-10 20 -22 29 -24 18 19 -3 78 -39 26 -16 26 -14 -6 14 -19 18 -44 40 -55 50
-11 10 -30 24 -42 30 -12 6 -58 43 -103 81 -45 39 -86 70 -92 70 -11 0 35 -64
67 -93 20 -18 20 -18 -3 -7 -13 6 -48 34 -78 61 -30 27 -61 49 -69 49 -8 0
-15 6 -15 14 0 7 -18 30 -40 50 -22 20 -37 36 -34 36 4 0 47 -21 97 -47z
m1780 8 c4 -1 18 -1 31 -1 14 0 26 -7 29 -17 3 -10 10 -32 15 -49 9 -29 8 -31
-11 -26 -15 4 -18 2 -12 -9 7 -11 5 -11 -10 1 -11 9 -16 10 -11 3 4 -7 3 -13
-3 -13 -6 0 -10 16 -9 35 1 26 4 32 13 25 9 -8 11 -4 8 13 -4 19 -10 23 -33
19 -29 -4 -31 -19 -8 -48 13 -18 -1 -43 -23 -39 -10 2 -19 0 -19 -5 0 -7 -50
-24 -62 -21 -2 0 -32 -8 -68 -19 -42 -13 -68 -16 -74 -10 -6 6 -20 10 -33 10
-31 0 -40 26 -18 50 29 32 170 100 208 100 20 0 39 5 42 10 4 6 13 7 23 1 9
-5 20 -9 25 -10z m307 -12 c0 -5 -6 -9 -14 -9 -15 0 -28 24 -19 34 7 7 33 -13
33 -25z m-2308 -7 c11 -13 8 -12 -19 2 -18 9 -33 18 -33 20 0 9 41 -8 52 -22z
m91 -33 l22 -21 -22 11 c-12 6 -25 16 -28 21 -11 17 5 11 28 -11z m2217 -15
c0 -17 -22 -14 -28 4 -2 7 3 12 12 12 9 0 16 -7 16 -16z m-2065 -24 c3 -5 2
-10 -4 -10 -5 0 -13 5 -16 10 -3 6 -2 10 4 10 5 0 13 -4 16 -10z m2015 -20 c8
-5 11 -10 5 -10 -5 0 -17 5 -25 10 -8 5 -10 10 -5 10 6 0 17 -5 25 -10z m-900
-20 c0 -5 -5 -10 -11 -10 -5 0 -7 5 -4 10 3 6 8 10 11 10 2 0 4 -4 4 -10z
m332 -39 c21 -8 19 -10 -27 -34 -63 -31 -133 -93 -180 -157 -48 -65 -61 -64
-27 3 15 28 33 51 40 50 6 -2 9 3 6 11 -3 7 28 49 72 96 71 74 79 80 86 61 4
-12 18 -25 30 -30z m638 24 c10 -12 10 -15 -4 -15 -9 0 -16 7 -16 15 0 8 2 15
4 15 2 0 9 -7 16 -15z m-2016 -14 c4 -5 -3 -7 -14 -4 -23 6 -26 13 -6 13 8 0
17 -4 20 -9z m1747 -12 c12 -19 11 -29 -2 -29 -5 0 -7 -5 -4 -10 4 -6 1 -18
-6 -26 -10 -12 -14 -12 -20 -2 -6 9 -9 6 -9 -9 0 -16 -6 -23 -20 -23 -11 0
-20 -4 -20 -9 0 -5 -17 -7 -37 -5 -22 2 -33 0 -25 -5 17 -10 2 -22 -54 -44
-79 -30 -124 -15 -124 43 0 56 52 102 127 113 16 2 35 7 43 10 47 19 138 17
151 -4z m-2037 -42 c1 -13 11 -26 24 -32 12 -5 22 -15 22 -21 0 -7 7 -15 16
-18 9 -4 14 -9 11 -13 -4 -3 0 -11 8 -17 7 -6 17 -23 21 -38 5 -23 2 -29 -17
-37 -13 -5 -18 -10 -11 -10 19 -1 14 -16 -17 -50 -16 -17 -25 -31 -21 -31 5 0
23 18 40 40 21 27 40 40 56 40 27 0 28 -3 13 -33 -8 -17 -5 -16 13 5 23 28 43
27 50 -2 2 -8 9 -21 16 -29 8 -8 12 -25 9 -37 -2 -13 0 -25 5 -26 17 -6 -3
-36 -32 -48 -20 -8 -34 -9 -48 -1 -22 11 -55 5 -47 -9 3 -5 -4 -6 -15 -3 -11
3 -22 9 -25 13 -3 5 5 6 17 2 15 -4 19 -2 14 7 -5 7 -18 11 -29 10 -45 -3 -49
0 -42 29 5 22 4 25 -6 15 -30 -29 -36 -3 -14 51 6 14 5 17 -3 12 -6 -4 -16
-21 -21 -39 l-9 -32 -23 50 c-30 66 -34 221 -6 273 16 30 19 31 34 17 9 -9 16
-26 17 -38z m376 5 c3 -2 -6 -1 -20 3 -22 7 -23 6 -11 -9 18 -21 9 -21 -15 2
-33 30 -28 45 8 26 18 -9 35 -19 38 -22z m1822 33 c2 -3 3 -18 0 -35 -4 -26
-6 -27 -19 -15 -16 16 -33 20 -33 7 0 -4 5 -13 11 -19 8 -8 7 -13 -2 -18 -7
-5 -10 -4 -5 3 3 5 -6 20 -21 32 -16 12 -20 19 -10 16 20 -6 24 19 5 27 -7 3
5 6 28 6 22 1 43 -1 46 -4z m-767 -42 c-20 -20 -24 -16 -12 11 7 15 14 20 18
14 4 -6 1 -17 -6 -25z m60 18 c3 -5 1 -12 -5 -16 -5 -3 -10 1 -10 9 0 18 6 21
15 7z m849 -6 c3 -9 0 -15 -9 -15 -8 0 -15 7 -15 15 0 8 4 15 9 15 5 0 11 -7
15 -15z m-1014 -30 c0 -8 -9 -15 -19 -15 -11 0 -22 -6 -25 -12 -3 -7 -4 -4 -3
7 2 13 9 19 20 17 9 -2 17 2 17 8 0 5 2 10 5 10 3 0 5 -7 5 -15z m375 -32 c-4
-27 -8 -50 -10 -52 -2 -2 -25 4 -51 13 -38 13 -49 13 -56 4 -4 -7 -8 -9 -8 -4
0 5 -8 2 -17 -5 -10 -7 -7 -1 6 14 23 25 113 77 134 77 5 0 6 -20 2 -47z
m-253 9 c-7 -2 -12 -10 -12 -18 0 -8 -7 -14 -16 -14 -14 0 -14 -3 -4 -15 8 -9
9 -15 2 -15 -6 0 -14 5 -17 10 -3 6 -11 10 -18 10 -6 0 -2 -7 9 -15 16 -13 17
-16 4 -25 -13 -9 -13 -10 0 -10 12 -1 11 -4 -4 -15 -11 -8 -17 -18 -13 -21 3
-4 1 -16 -6 -28 -6 -11 -12 -37 -13 -56 -3 -72 -36 -210 -51 -210 -12 0 -13
17 -7 100 7 111 35 236 52 233 5 -1 13 4 16 13 3 9 2 12 -5 9 -5 -4 -3 10 6
31 17 42 31 55 51 47 6 -2 16 1 20 8 6 10 9 10 12 -1 3 -8 0 -16 -6 -18z
m2311 11 c-7 -2 -19 -2 -25 0 -7 3 -2 5 12 5 14 0 19 -2 13 -5z m-3343 -46 c8
-7 26 -26 40 -42 22 -26 21 -26 -15 5 -22 19 -53 45 -70 58 l-30 23 30 -15
c17 -9 37 -21 45 -29z m3087 37 c-3 -3 -12 -4 -19 -1 -8 3 -5 6 6 6 11 1 17
-2 13 -5z m516 -10 c15 -3 27 -10 27 -15 0 -5 7 -9 15 -9 8 0 15 -4 15 -8 0
-13 -58 -1 -71 14 -6 8 -21 14 -33 15 -11 0 -30 5 -41 10 -20 9 21 6 88 -7z
m-103 -4 c11 -7 8 -10 -15 -9 -16 0 -39 4 -50 9 -16 7 -14 9 15 9 19 0 42 -4
50 -9z m-1809 -11 c11 -5 17 -15 13 -21 -4 -6 1 -8 15 -3 17 5 20 3 14 -11 -5
-13 -3 -16 9 -11 17 6 33 -17 23 -33 -3 -5 4 -7 15 -5 14 3 22 -3 26 -21 3
-13 10 -24 16 -24 5 0 6 6 2 13 -4 6 1 5 11 -5 10 -9 19 -32 21 -52 4 -32 1
-38 -35 -62 -22 -14 -46 -24 -53 -22 -7 3 -18 -2 -24 -11 -10 -13 -14 -13 -28
-2 -10 8 -22 10 -33 5 -10 -4 -22 -8 -28 -9 -5 0 -20 -6 -32 -13 -21 -12 -27
-9 -24 11 0 4 -3 7 -9 7 -5 0 -10 -8 -10 -17 0 -15 -2 -16 -10 -3 -8 12 -13
13 -30 3 -26 -17 -33 -16 -26 2 3 8 1 15 -5 15 -5 0 -12 -6 -15 -13 -3 -8 -21
-14 -42 -15 -20 -1 -50 -3 -67 -4 -16 -2 -31 0 -32 5 -2 4 -3 45 -3 91 l0 84
33 13 c17 7 50 24 71 38 56 37 156 79 189 80 16 1 37 -4 48 -10z m269 7 c0
-11 -19 -15 -25 -6 -3 5 1 10 9 10 9 0 16 -2 16 -4z m966 -25 c-9 -15 -73 -41
-98 -40 l-23 0 25 12 c14 6 27 14 30 18 10 14 74 24 66 10z m884 -33 c14 -10
36 -28 50 -39 l25 -20 -39 16 c-46 18 -125 82 -85 70 13 -4 35 -16 49 -27z
m-2944 -10 c-1 -18 2 -38 6 -44 5 -6 2 -11 -7 -11 -12 0 -14 9 -11 36 3 20 5
39 5 44 1 4 3 7 5 7 2 0 3 -15 2 -32z m2544 -8 c0 -5 -15 -10 -34 -10 -19 0
-38 5 -41 10 -4 6 10 10 34 10 23 0 41 -4 41 -10z m-3315 -30 c10 -11 16 -20
13 -20 -3 0 -13 9 -23 20 -10 11 -16 20 -13 20 3 0 13 -9 23 -20z m1149 -1
c21 -17 24 -24 15 -35 -6 -8 -9 -15 -5 -15 3 -1 11 -3 16 -4 6 -1 13 -3 16 -4
4 0 1 -8 -6 -16 -6 -8 -9 -19 -5 -26 6 -8 9 -8 15 1 4 6 7 -2 6 -18 -1 -17 -5
-30 -11 -29 -8 2 -15 -43 -19 -125 0 -16 -3 -28 -6 -28 -3 0 -5 -16 -6 -36 0
-20 -6 -39 -12 -43 -6 -3 -13 -22 -16 -41 -11 -69 -29 -125 -46 -145 -10 -11
-15 -26 -13 -32 3 -7 1 -13 -5 -13 -5 0 -29 -31 -53 -70 -24 -38 -46 -70 -49
-70 -3 0 -21 13 -40 29 -33 27 -35 32 -33 87 1 33 3 71 5 86 2 15 -1 27 -6 27
-17 -1 -24 24 -10 39 9 9 11 18 6 26 -12 15 -22 57 -12 51 12 -8 18 16 13 51
-3 18 0 40 6 50 9 17 10 17 11 2 0 -9 4 -19 9 -22 12 -8 41 4 41 16 0 6 -6 5
-15 -2 -18 -15 -20 1 -2 19 8 9 8 12 0 7 -18 -10 -46 23 -33 39 8 10 7 16 -3
22 -21 12 -28 51 -10 57 11 4 13 2 10 -9 -4 -8 -2 -17 3 -20 6 -4 10 8 9 27
-1 47 8 89 21 102 6 6 11 7 10 1 -2 -5 -2 -16 -1 -24 1 -17 14 -7 18 14 2 8 4
22 6 30 4 17 36 49 57 58 35 13 98 6 124 -14z m681 11 c3 -5 -3 -10 -15 -10
-12 0 -18 5 -15 10 3 6 10 10 15 10 5 0 12 -4 15 -10z m740 -45 c-40 -19 -67
-18 -35 0 14 8 34 14 45 14 15 -1 13 -4 -10 -14z m-761 -4 c8 -13 -4 -42 -15
-35 -12 7 -12 44 0 44 6 0 12 -4 15 -9z m-904 -8 c0 -5 -8 -17 -17 -28 -14
-18 -15 -18 -9 -2 3 10 6 23 6 28 0 5 5 9 10 9 6 0 10 -3 10 -7z m3075 -83
c16 -16 34 -30 41 -30 19 0 130 -128 156 -179 13 -26 26 -48 31 -49 12 -6 48
-82 43 -91 -3 -5 3 -18 13 -30 10 -12 29 -49 41 -84 35 -96 44 -117 53 -117 5
0 6 -3 3 -8 -9 -15 23 -72 37 -66 11 4 17 -10 26 -59 13 -75 13 -89 0 -62 -7
15 -8 10 -4 -20 2 -22 5 -50 5 -62 0 -13 4 -23 8 -23 5 0 7 15 6 33 l-3 32 7
-30 c6 -26 27 -39 27 -17 0 23 -30 166 -46 217 -10 33 -21 78 -24 100 l-6 40
16 -28 c9 -15 20 -53 26 -85 6 -31 15 -60 20 -63 6 -3 16 -41 24 -85 l14 -79
-6 120 c-7 156 -9 176 -18 198 -4 10 -5 21 -1 24 3 4 6 1 6 -6 0 -19 28 -43
41 -35 8 4 7 9 -2 16 -10 6 -6 7 11 2 14 -4 38 -6 55 -6 16 1 42 -3 57 -9 36
-15 42 -58 35 -248 -4 -120 -10 -167 -36 -266 -73 -276 -235 -524 -471 -719
-120 -99 -121 -97 -9 14 108 106 157 164 198 233 16 25 19 37 10 35 -8 -2 -17
-10 -21 -18 -5 -12 -7 -11 -7 4 -1 12 -6 16 -16 13 -23 -10 -25 5 -3 48 24 49
29 73 18 80 -7 5 -16 -10 -54 -95 -26 -59 -76 -144 -76 -130 0 8 -6 6 -17 -6
-33 -35 -122 -7 -108 33 2 7 -1 15 -7 19 -6 4 -8 3 -4 -4 3 -6 2 -13 -3 -16
-22 -14 -20 16 2 46 24 32 90 153 115 212 12 27 12 28 -4 15 -16 -12 -17 -12
-9 1 4 8 15 23 23 32 8 10 17 45 19 80 5 67 30 151 44 143 15 -10 21 17 20 85
0 38 3 78 7 90 5 12 4 52 -2 89 -11 65 -12 66 -56 89 -53 27 -135 29 -203 6
-86 -29 -142 -124 -119 -202 15 -51 53 -85 93 -85 56 0 79 61 29 73 -25 6 -25
7 -3 14 27 9 59 -7 68 -33 10 -32 -5 -69 -43 -102 -32 -28 -40 -31 -87 -27
-133 11 -205 172 -136 306 67 129 236 184 374 120 l57 -27 0 27 1 27 14 -25
c8 -14 14 -32 15 -41 0 -18 50 -88 63 -89 5 0 5 4 2 10 -3 5 -11 38 -16 72 -5
34 -21 84 -33 112 -13 28 -29 69 -36 91 -20 64 -62 156 -97 210 -18 27 -33 53
-33 57 0 5 -19 28 -42 52 -131 134 -160 166 -151 166 5 0 22 -13 38 -30z
m-2155 5 c0 -8 -4 -15 -10 -15 -5 0 -10 7 -10 15 0 8 5 15 10 15 6 0 10 -7 10
-15z m-2395 -16 c-10 -15 -25 -10 -19 6 4 8 10 12 15 9 5 -3 7 -10 4 -15z
m735 11 c0 -5 -2 -10 -4 -10 -3 0 -8 5 -11 10 -3 6 -1 10 4 10 6 0 11 -4 11
-10z m-667 -35 c50 -35 83 -65 65 -59 -10 3 -18 10 -18 16 0 5 -4 6 -10 3 -11
-7 -54 14 -46 22 12 12 -15 31 -36 25 -14 -3 -19 -1 -15 6 9 14 27 10 60 -13z
m2287 18 c0 -15 -34 -43 -52 -43 -26 0 -18 22 13 37 27 14 39 16 39 6z m-1448
-149 c35 -38 42 -42 55 -29 15 16 45 7 59 -18 5 -8 2 -7 -9 2 -31 25 -28 4 4
-30 20 -22 33 -46 34 -67 2 -30 -4 -26 -110 85 -61 65 -127 136 -146 158 -31
37 -30 37 20 -9 29 -27 71 -68 93 -92z m3568 105 c17 -17 29 -34 26 -36 -6 -6
-57 29 -76 52 -25 30 17 17 50 -16z m-2703 -1 c-3 -8 -6 -5 -6 6 -1 11 2 17 5
13 3 -3 4 -12 1 -19z m-1787 -1 c-14 -7 -37 -21 -52 -31 -21 -14 -31 -15 -45
-6 -16 9 -15 10 7 6 14 -3 19 -3 13 0 -7 3 -13 12 -13 19 0 13 26 19 90 23
l25 2 -25 -13z m275 -9 c35 16 31 6 -5 -13 -38 -20 -47 -19 -60 5 -10 18 -9
19 15 8 19 -8 31 -8 50 0z m1971 -21 c-3 -13 -29 -47 -57 -75 -41 -41 -55 -50
-65 -41 -11 9 -14 7 -14 -8 0 -25 -89 -76 -116 -67 -13 4 -15 3 -7 -3 17 -12
-21 -45 -42 -37 -11 4 -13 2 -10 -9 4 -8 -4 -22 -18 -34 -14 -10 -41 -45 -61
-76 -49 -76 -92 -125 -128 -143 -17 -9 -27 -18 -24 -21 9 -9 -118 -52 -127
-43 -9 8 2 40 14 40 5 0 9 6 9 13 0 8 9 22 20 32 13 12 18 26 14 39 -4 15 -3
17 4 7 7 -10 20 8 50 70 73 152 92 196 92 208 0 28 42 91 75 111 28 17 63 25
153 33 64 6 136 11 160 11 23 1 42 4 42 8 0 7 32 16 39 12 2 -2 1 -14 -3 -27z
m2294 8 c13 -14 21 -25 18 -25 -2 0 -15 11 -28 25 -13 14 -21 25 -18 25 2 0
15 -11 28 -25z m-4502 -5 c-9 -14 -14 -16 -20 -7 -5 8 -8 5 -9 -8 -1 -11 -1
-23 0 -27 0 -5 -4 -8 -10 -8 -7 0 -9 9 -5 23 3 12 6 26 6 31 0 4 7 6 15 2 8
-3 15 -1 15 4 0 6 5 10 10 10 6 0 5 -8 -2 -20z m4602 -40 c0 8 15 0 35 -20 19
-19 35 -40 35 -47 0 -22 -14 -14 -39 23 -17 24 -27 31 -32 22 -6 -9 -18 -1
-43 26 -49 51 -46 69 4 21 22 -22 40 -33 40 -25z m-4545 35 c1 -6 6 -20 13
-32 8 -14 9 -23 3 -23 -6 0 -17 12 -24 27 l-14 27 -5 -37 c-4 -35 -1 -39 35
-45 4 -1 22 -9 40 -17 l32 -16 -24 21 c-13 11 -30 20 -39 20 -8 0 -12 3 -9 6
7 7 66 -14 69 -25 7 -30 3 -59 -8 -57 -19 3 -30 16 -13 16 14 0 -36 30 -56 34
-5 1 -16 6 -24 10 -9 6 -12 5 -7 -2 3 -6 2 -13 -3 -16 -6 -4 -9 107 -2 122 3
8 36 -4 36 -13z m2225 -4 c0 -6 -4 -13 -10 -16 -5 -3 -10 1 -10 9 0 9 5 16 10
16 6 0 10 -4 10 -9z m-2350 -5 c0 -2 -8 -10 -17 -17 -16 -13 -17 -12 -4 4 13
16 21 21 21 13z m2292 -48 c-18 -19 -22 -20 -22 -6 0 9 8 21 17 27 27 15 29 3
5 -21z m-2241 -11 c-10 -9 -11 -8 -5 6 3 10 9 15 12 12 3 -3 0 -11 -7 -18z
m2498 10 c6 -8 14 -27 17 -44 5 -27 2 -31 -36 -48 -22 -10 -66 -38 -96 -61
-30 -24 -61 -41 -69 -38 -8 3 -12 -1 -12 -12 3 -30 -113 -84 -180 -84 -62 0
-135 18 -127 32 3 4 10 5 16 2 6 -4 8 -2 5 3 -4 6 9 23 28 38 20 14 44 36 55
48 14 15 20 17 20 6 0 -21 47 -41 54 -23 5 13 -5 18 -31 15 -7 -1 -9 7 -6 19
6 21 68 70 89 70 7 0 14 3 16 8 10 24 165 76 193 66 7 -3 16 -1 20 5 9 15 30
14 44 -2z m-2325 -13 c9 -24 4 -25 -23 -3 -22 18 -22 19 -3 19 11 0 23 -7 26
-16z m2406 -44 c0 -5 -9 -10 -20 -10 -11 0 -20 5 -20 10 0 6 9 10 20 10 11 0
20 -4 20 -10z m-1142 -35 c-3 -3 -9 2 -12 12 -6 14 -5 15 5 6 7 -7 10 -15 7
-18z m1227 16 c7 -12 -12 -24 -25 -16 -11 7 -4 25 10 25 5 0 11 -4 15 -9z
m-22 -29 c57 -11 65 -17 49 -42 -7 -12 -8 -20 -2 -20 5 0 10 5 10 11 0 6 7 8
16 5 8 -3 12 -2 9 4 -3 6 -1 10 5 10 13 0 31 -44 19 -48 -11 -4 -12 -32 -1
-31 21 4 31 -4 41 -31 5 -17 6 -28 2 -25 -5 2 -14 -1 -20 -9 -9 -11 -6 -13 14
-13 42 0 93 -43 110 -92 20 -59 19 -78 -5 -86 -11 -3 -20 -11 -20 -16 0 -6 9
-7 21 -4 16 5 20 3 16 -6 -5 -15 -8 -15 -47 -4 -20 6 -22 5 -13 -5 6 -7 9 -19
6 -26 -3 -8 1 -14 11 -14 9 0 16 5 16 10 0 6 5 10 11 10 20 0 -14 -32 -48 -47
-46 -19 -74 -17 -80 7 -3 11 -12 20 -21 20 -8 0 -12 3 -8 7 9 9 36 13 36 5 0
-12 70 -8 74 4 2 6 -8 10 -25 9 -17 -1 -32 1 -34 5 -6 10 -58 -1 -68 -14 -4
-6 -5 -22 -2 -36 5 -22 4 -23 -6 -7 -6 10 -8 25 -5 34 4 8 1 22 -6 31 -11 13
-9 14 15 8 22 -5 28 -4 25 6 -3 7 -19 13 -36 14 -18 1 -40 8 -50 18 -21 18
-52 22 -52 6 0 -6 8 -10 18 -8 11 2 17 -3 16 -14 -1 -13 6 -18 22 -18 22 0 23
-2 12 -21 -9 -13 -20 -19 -35 -16 -27 5 -30 -8 -5 -22 13 -8 14 -10 2 -10 -22
1 -59 17 -40 18 10 1 7 6 -8 17 -13 9 -26 13 -29 10 -4 -3 -1 -6 5 -6 7 0 12
-4 12 -10 0 -5 -20 -2 -45 8 -25 9 -45 23 -45 30 0 11 -3 12 -14 3 -23 -20
-52 0 -47 32 1 5 -3 6 -8 3 -5 -4 -16 0 -24 8 -8 8 -17 12 -21 9 -3 -4 -6 2
-6 13 0 10 -4 15 -8 9 -12 -17 -57 -11 -54 7 1 9 -4 18 -13 22 -24 9 -17 21
13 24 53 4 139 35 252 90 63 31 122 57 130 57 8 1 23 2 33 3 9 1 17 8 17 16 0
20 -56 2 -185 -59 -151 -71 -196 -84 -294 -87 -72 -2 -93 1 -117 17 l-29 19
50 11 c58 14 135 46 135 57 0 5 6 8 13 8 8 0 24 12 38 26 13 14 58 48 99 76
81 53 76 53 203 30z m125 -21 c3 -8 -1 -12 -9 -9 -7 2 -15 10 -17 17 -3 8 1
12 9 9 7 -2 15 -10 17 -17z m1941 -73 c6 -17 6 -28 1 -28 -12 0 -55 67 -64
100 -6 23 -4 22 23 -9 17 -19 35 -47 40 -63z m-3503 14 c-4 -3 -14 2 -24 12
-16 18 -16 18 6 6 13 -6 21 -14 18 -18z m1622 -34 c-7 -19 -21 -12 -25 11 -3
20 -1 22 12 11 9 -7 14 -17 13 -22z m-1560 -50 c-7 -19 -38 -22 -38 -4 0 10 9
16 21 16 12 0 19 -5 17 -12z m3476 -4 c3 -9 6 -23 6 -32 0 -21 -15 -5 -25 26
-7 25 9 31 19 6z m-3589 -14 c10 -11 16 -20 13 -20 -3 0 -13 9 -23 20 -10 11
-16 20 -13 20 3 0 13 -9 23 -20z m1705 -6 c0 -8 -4 -14 -9 -14 -11 0 -22 26
-14 34 9 9 23 -3 23 -20z m-5023 -6 c-3 -8 -6 -5 -6 6 -1 11 2 17 5 13 3 -3 4
-12 1 -19z m4146 -11 c-4 -7 0 -8 13 -3 10 4 15 4 12 0 -9 -8 61 -74 78 -74 8
0 13 -6 12 -12 -2 -7 3 -12 10 -10 8 1 11 -2 8 -7 -3 -5 14 -24 39 -42 63 -48
63 -56 -3 -75 -31 -9 -67 -20 -78 -24 -13 -5 -26 -4 -34 3 -8 7 -11 8 -7 1 4
-7 -10 -11 -41 -12 -73 -1 -120 -8 -207 -31 -44 -12 -88 -20 -98 -17 -9 2 -15
0 -12 -4 7 -12 -35 -24 -45 -13 -4 4 -17 29 -28 56 l-21 47 23 0 c12 0 41 9
64 20 22 11 46 20 53 20 6 0 20 11 31 25 13 17 26 24 38 20 10 -3 21 -1 25 5
3 5 1 10 -6 10 -8 0 -8 4 1 15 7 8 17 15 22 15 5 0 26 16 46 35 20 19 40 35
45 35 4 0 7 7 7 16 0 8 4 13 9 9 5 -3 12 -1 16 4 3 6 12 8 20 5 8 -4 12 -11 8
-17z m2825 -12 c-3 -3 -9 2 -12 12 -6 14 -5 15 5 6 7 -7 10 -15 7 -18z m-3530
-3 c2 -7 -3 -12 -12 -12 -9 0 -16 7 -16 16 0 17 22 14 28 -4z m-3520 -17 c-3
-3 -9 2 -12 12 -6 14 -5 15 5 6 7 -7 10 -15 7 -18z m37 15 c-3 -5 -10 -10 -16
-10 -5 0 -9 5 -9 10 0 6 7 10 16 10 8 0 12 -4 9 -10z m42 -92 c-1 -58 4 -126
12 -155 7 -29 11 -58 8 -65 -7 -22 -27 62 -33 142 -8 103 -15 115 -29 50 -7
-30 -13 -47 -14 -37 -1 14 -21 27 -21 13 0 -21 54 -225 65 -245 8 -14 21 -48
30 -76 17 -51 55 -136 66 -145 7 -6 43 -72 44 -81 0 -4 14 -20 30 -36 70 -69
158 -163 153 -163 -4 0 -25 16 -48 35 -23 19 -46 35 -50 35 -13 0 -120 142
-127 168 -3 13 -16 34 -29 47 -13 14 -24 36 -24 51 0 15 -7 32 -15 38 -8 6
-27 45 -41 86 -15 41 -30 80 -35 86 -9 10 -22 85 -39 219 -12 95 -12 118 1
110 6 -4 8 -14 5 -24 -5 -14 -5 -14 7 1 14 18 67 32 67 18 0 -5 -8 -10 -17
-12 -15 -3 -14 -5 5 -10 19 -5 22 -2 22 23 0 16 2 29 4 29 3 0 4 -46 3 -102z
m2657 77 c-11 -8 -14 -14 -6 -15 10 0 10 -3 0 -14 -7 -8 -17 -12 -22 -9 -4 3
-3 9 4 13 10 6 10 9 0 15 -14 9 5 25 29 25 11 0 9 -4 -5 -15z m4296 -44 c0
-10 -8 -5 -20 14 -26 39 -26 55 0 25 11 -13 20 -30 20 -39z m-3638 34 c0 -5
-5 -11 -11 -13 -6 -2 -11 4 -11 13 0 9 5 15 11 13 6 -2 11 -8 11 -13z m1781
-26 c-8 -8 -14 -6 -22 9 -13 25 -2 37 18 17 11 -11 12 -18 4 -26z m1903 -4 c4
-21 3 -27 -4 -20 -6 6 -14 24 -18 40 -4 21 -3 27 4 20 6 -5 14 -23 18 -40z
m-4210 26 c-5 -8 -56 -3 -56 5 0 2 14 4 31 4 16 0 28 -4 25 -9z m-196 -11 c0
-5 -2 -10 -4 -10 -3 0 -8 5 -11 10 -3 6 -1 10 4 10 6 0 11 -4 11 -10z m778 -8
c2 -7 -3 -12 -12 -12 -9 0 -16 7 -16 16 0 17 22 14 28 -4z m185 -17 c4 -8 2
-17 -3 -20 -6 -4 -10 3 -10 14 0 25 6 27 13 6z m-739 -30 c-3 -8 -9 -14 -12
-13 -4 0 -14 0 -22 -1 -13 -1 -13 -2 0 -12 12 -8 9 -9 -12 -5 -22 5 -28 3 -29
-11 0 -16 -2 -15 -9 2 -8 18 -9 18 -9 2 -1 -11 -6 -15 -12 -11 -6 3 -15 1 -19
-6 -7 -11 -14 -10 -37 5 l-28 18 19 -21 c17 -20 18 -22 2 -22 -9 0 -15 -4 -12
-9 5 -7 -89 -68 -136 -89 -5 -2 -8 12 -8 31 0 26 -7 41 -25 55 -19 15 -22 22
-12 30 29 25 163 59 151 40 -4 -6 3 -7 17 -2 13 4 47 9 74 10 39 3 105 15 122
23 1 1 0 -6 -3 -14z m4146 -30 c0 -5 -5 -3 -10 5 -5 8 -10 20 -10 25 0 6 5 3
10 -5 5 -8 10 -19 10 -25z m63 -8 c-7 -11 -23 12 -23 32 0 11 4 9 14 -4 8 -11
12 -24 9 -28z m-1906 -11 c-10 -24 -27 -19 -23 7 3 12 5 24 5 27 1 2 6 -1 12
-7 7 -7 9 -19 6 -27z m-1469 -16 c33 -38 52 -97 52 -162 l0 -68 -33 0 c-56 0
-127 30 -173 75 -24 23 -44 47 -44 53 0 7 16 -6 36 -27 37 -42 95 -69 154 -73
l35 -3 3 47 c4 65 -13 122 -51 166 -18 20 -23 30 -12 22 11 -8 26 -22 33 -30z
m-1472 -7 c-10 -10 -19 5 -10 18 6 11 8 11 12 0 2 -7 1 -15 -2 -18z m4861 5
c-3 -8 -6 -5 -6 6 -1 11 2 17 5 13 3 -3 4 -12 1 -19z m-4257 -5 c0 -5 -27 -21
-59 -37 -74 -36 -151 -98 -193 -156 l-33 -44 -5 28 c-3 17 -13 32 -25 36 -16
6 -6 15 55 57 94 63 110 71 190 100 76 26 70 25 70 16z m748 -16 c2 -12 -3
-17 -17 -17 -12 0 -21 6 -21 13 0 31 32 34 38 4z m-578 3 c5 0 12 -9 15 -21 5
-14 10 -17 19 -10 13 11 36 -4 36 -23 0 -6 11 -12 25 -12 14 -1 23 2 20 6 -3
5 5 6 17 2 14 -3 19 -2 14 6 -4 7 -18 12 -31 12 -13 0 -26 4 -29 9 -6 9 15 8
77 -4 24 -5 37 -4 37 4 0 13 32 2 43 -16 6 -10 13 -10 28 -3 13 7 25 8 37 1
12 -8 13 -10 3 -11 -8 0 -11 -3 -7 -7 4 -5 31 -8 59 -8 71 -1 108 -20 130 -67
15 -30 16 -42 7 -53 -7 -8 -15 -14 -18 -13 -15 4 -112 -34 -112 -44 0 -6 -6
-8 -14 -5 -7 3 -24 0 -37 -7 -13 -7 -46 -13 -74 -15 -59 -3 -105 -8 -159 -17
-27 -5 -37 -3 -32 5 4 6 2 11 -3 11 -6 0 -11 -4 -11 -8 0 -4 -34 -5 -76 -1
-42 4 -87 4 -100 -1 -17 -7 -23 -6 -21 3 1 7 -8 12 -20 12 -11 0 -25 3 -29 8
-4 4 -2 7 5 7 7 0 9 5 6 11 -4 6 -13 8 -20 5 -40 -15 -60 81 -28 135 17 28 71
61 95 58 7 -1 20 -1 28 0 12 1 11 4 -4 12 -15 9 -16 13 -5 20 8 4 16 4 19 -2
8 -12 70 9 70 23 0 6 7 7 16 4 9 -3 19 -6 24 -6z m-3055 -22 c13 -38 13 -68
-1 -68 -8 0 -14 4 -14 9 0 5 -3 23 -6 40 -6 31 11 46 21 19z m2553 0 c15 -15
15 -57 -1 -83 -27 -46 -62 -85 -74 -85 -8 0 -12 -4 -8 -9 3 -5 -6 -18 -20 -29
-14 -11 -25 -25 -25 -32 0 -7 -7 -10 -16 -6 -11 4 -18 -1 -21 -14 -4 -16 -8
-18 -19 -9 -11 9 -14 8 -14 -6 0 -14 -3 -15 -14 -6 -7 6 -22 8 -32 5 -11 -4
-16 -4 -12 1 4 4 0 14 -10 21 -14 10 -15 15 -4 25 10 11 12 10 12 -1 0 -7 2
-11 5 -8 12 11 -7 37 -23 31 -13 -4 -13 -2 2 9 12 9 17 22 13 31 -4 11 -2 14
7 11 17 -7 33 16 18 25 -6 4 -1 15 14 28 13 12 24 19 24 17 0 -3 13 9 28 26
27 29 108 68 143 70 8 0 20 -5 27 -12z m2660 -5 c-5 -25 -28 -28 -28 -4 0 12
6 21 16 21 9 0 14 -7 12 -17z m-422 -28 c91 -31 139 -44 184 -47 8 0 20 -5 26
-10 6 -4 18 -6 26 -3 13 5 14 1 4 -29 -10 -34 -26 -49 -26 -26 0 6 -8 13 -17
17 -10 3 -27 13 -37 22 -18 15 -19 15 -12 -4 7 -18 5 -18 -14 3 -33 35 -90 26
-90 -14 0 -10 39 -3 43 9 4 7 8 3 13 -11 5 -17 10 -20 20 -12 9 8 18 8 34 0
11 -6 25 -8 30 -5 5 3 14 -3 20 -14 7 -14 16 -18 28 -14 15 6 14 4 -2 -13 -16
-16 -17 -19 -4 -22 10 -2 14 -11 11 -26 -7 -34 23 -29 38 6 13 32 29 46 29 25
0 -29 -44 -66 -76 -65 -37 1 -54 -8 -54 -28 0 -9 -6 -14 -12 -11 -8 2 -12 15
-10 30 2 16 -1 27 -8 27 -7 0 -10 -7 -7 -15 4 -8 2 -17 -3 -20 -6 -4 -10 2
-10 12 0 10 -5 25 -11 33 -9 12 -10 11 -6 -6 4 -18 -4 -16 -51 20 -30 22 -60
40 -65 38 -6 -2 -5 4 3 12 10 13 10 16 -4 16 -10 0 -14 5 -10 11 4 7 -1 9 -12
7 -11 -2 -18 -10 -16 -16 2 -13 -8 -15 -32 -6 -9 3 -13 10 -10 15 3 5 1 9 -5
9 -5 0 -11 -4 -13 -10 -3 -11 -118 18 -118 30 0 4 -11 5 -24 3 -27 -6 -45 15
-25 28 10 6 2 9 -23 9 -21 0 -38 5 -38 11 0 6 -7 8 -17 4 -12 -4 -14 -3 -8 3
18 18 169 61 215 62 26 0 86 -15 146 -35z m-1106 1 c0 -16 -18 -31 -27 -22 -8
8 5 36 17 36 5 0 10 -6 10 -14z m567 -12 c-3 -3 -12 -4 -19 -1 -8 3 -5 6 6 6
11 1 17 -2 13 -5z m698 -4 c3 -5 2 -10 -4 -10 -5 0 -13 5 -16 10 -3 6 -2 10 4
10 5 0 13 -4 16 -10z m-4960 -95 c10 -53 -4 -39 -16 17 -5 24 -12 52 -14 63
-3 11 2 6 9 -10 8 -17 18 -48 21 -70z m5185 70 c-7 -8 -16 -15 -21 -15 -5 0
-9 7 -9 15 0 9 9 15 21 15 18 0 19 -2 9 -15z m-2417 -22 c-11 -17 -17 -44 -17
-80 l1 -53 -43 0 c-23 0 -46 5 -49 10 -10 16 31 75 78 114 23 20 43 36 45 36
1 0 -5 -12 -15 -27z m-853 -33 c-6 -11 -8 -26 -4 -32 4 -7 3 -8 -4 -4 -7 4
-12 2 -12 -5 0 -7 -6 -4 -14 6 -13 18 -14 18 -9 -8 6 -31 -12 -58 -33 -50 -8
3 -14 0 -14 -6 0 -6 5 -11 10 -11 16 0 12 -15 -10 -40 -11 -13 -20 -27 -20
-32 0 -13 18 -10 23 5 3 7 6 6 6 -5 1 -9 -3 -20 -9 -23 -15 -9 -12 -25 4 -25
7 0 16 -9 19 -20 3 -11 10 -20 17 -20 6 0 8 5 4 12 -5 7 -3 8 5 4 7 -5 10 -14
7 -21 -2 -7 1 -18 7 -24 7 -7 7 -11 1 -11 -14 0 -90 55 -100 72 -4 7 2 4 14
-6 12 -11 25 -16 29 -13 8 8 -26 36 -44 37 -15 0 -18 20 -3 20 6 0 10 5 10 10
0 6 -9 10 -20 10 -41 0 -17 72 42 126 44 40 73 62 65 47 -4 -6 -3 -14 3 -18 9
-5 12 1 9 21 -1 6 21 23 29 24 1 0 -2 -9 -8 -20z m5177 -47 c-2 -16 -4 -5 -4
22 0 28 2 40 4 28 2 -13 2 -35 0 -50z m-2647 47 c70 -10 177 -43 324 -99 16
-7 26 -14 23 -17 -2 -3 -22 2 -42 10 -20 9 -41 14 -45 11 -5 -3 -11 -1 -14 4
-6 8 -73 26 -88 23 -5 -1 -8 2 -8 7 0 8 -19 13 -90 25 -36 6 -131 34 -138 40
-7 8 1 7 78 -4z m658 -22 c9 -25 9 -27 -8 -18 -11 6 -22 15 -25 20 -4 6 -10 8
-14 6 -4 -3 -8 1 -8 9 0 26 43 13 55 -17z m-3038 13 c0 -12 -20 -25 -27 -18
-7 7 6 27 18 27 5 0 9 -4 9 -9z m3095 -31 c0 -7 -6 -15 -12 -17 -8 -3 -13 4
-13 17 0 13 5 20 13 18 6 -3 12 -11 12 -18z m-5016 -40 c0 -10 -3 -8 -9 5 -12
27 -12 43 0 25 5 -8 9 -22 9 -30z m2437 -9 c2 -32 -7 -63 -32 -117 -19 -41
-34 -79 -34 -84 0 -6 -4 -10 -10 -10 -5 0 -10 -7 -10 -15 0 -23 -27 -29 -54
-12 -24 16 -36 13 -36 -9 0 -6 12 -12 28 -13 54 -1 62 -2 62 -12 0 -5 -4 -9
-10 -9 -5 0 -6 -7 -3 -17 5 -12 3 -14 -7 -8 -10 6 -12 4 -7 -9 6 -14 3 -16
-16 -10 -12 3 -31 14 -41 23 -15 13 -18 13 -11 1 8 -13 7 -13 -9 -1 -20 17
-20 101 1 141 7 14 13 29 13 34 0 15 89 134 117 156 40 31 56 23 59 -29z
m-2398 14 c-3 -3 -9 2 -12 12 -6 14 -5 15 5 6 7 -7 10 -15 7 -18z m3432 6 c5
-11 7 -21 2 -23 -11 -5 -52 -66 -52 -78 0 -6 -4 -9 -9 -5 -5 3 -16 -3 -23 -13
-24 -33 -87 -74 -159 -103 -39 -16 -82 -38 -96 -49 -28 -22 -48 -27 -37 -8 4
7 3 8 -4 4 -7 -4 -12 -15 -12 -24 0 -18 -36 -46 -43 -34 -2 4 -3 2 -1 -4 1 -7
-4 -22 -13 -34 -12 -17 -17 -19 -25 -9 -7 11 -8 11 -6 -1 4 -24 -22 -61 -40
-58 -10 2 -17 -3 -17 -12 0 -14 -45 -60 -60 -60 -3 0 -13 -7 -22 -16 -9 -8
-22 -13 -30 -10 -8 3 -11 1 -8 -4 3 -6 -5 -10 -19 -10 -27 0 -31 6 -17 29 5 7
14 10 20 7 6 -4 11 -3 11 3 0 5 -4 11 -10 13 -5 2 4 44 20 93 16 50 36 116 45
147 20 76 53 113 117 132 29 8 55 13 60 10 4 -3 16 -1 25 5 16 8 48 16 103 25
8 1 50 13 93 26 54 16 74 26 65 32 -9 7 -7 8 7 4 11 -3 40 6 65 19 55 29 57
30 70 6z m-1686 -7 c4 -9 4 -19 1 -22 -3 -3 -5 0 -5 6 0 7 -7 12 -15 12 -8 0
-15 5 -15 10 0 16 27 11 34 -6z m96 6 c0 -5 -5 -10 -11 -10 -5 0 -7 5 -4 10 3
6 8 10 11 10 2 0 4 -4 4 -10z m1897 -5 c3 -9 3 -19 -1 -22 -7 -7 -36 16 -36
28 0 15 30 10 37 -6z m-1877 -19 c0 -3 -4 -8 -10 -11 -5 -3 -10 -1 -10 4 0 6
5 11 10 11 6 0 10 -2 10 -4z m1690 -57 c0 -6 -12 -36 -26 -67 -14 -31 -33 -75
-42 -97 -8 -22 -22 -50 -30 -62 -7 -12 -11 -27 -7 -32 3 -6 -4 -24 -16 -40
-15 -21 -20 -37 -15 -55 4 -18 1 -28 -11 -35 -10 -6 -13 -11 -5 -11 8 0 -3
-29 -27 -77 -52 -101 -61 -114 -59 -88 2 23 -49 115 -64 115 -5 0 -6 5 -3 10
3 6 -5 14 -19 20 -14 5 -26 12 -26 14 0 3 7 3 15 0 20 -8 19 -3 -10 36 -14 19
-23 40 -21 47 3 6 -4 15 -15 18 -10 4 -19 12 -19 18 1 14 24 47 34 47 10 0 86
60 108 85 11 13 17 15 18 7 0 -7 5 -10 11 -7 6 4 8 14 5 21 -4 10 7 22 29 35
19 12 35 27 35 34 0 7 7 18 15 25 8 7 13 15 10 19 -2 4 5 15 16 24 10 9 19 26
19 37 0 20 1 20 50 -5 28 -14 50 -30 50 -36z m-979 20 c25 -25 21 -51 -18
-112 -30 -48 -45 -60 -54 -46 -3 6 -6 -5 -7 -23 0 -18 -6 -34 -11 -36 -6 -2
-11 -11 -11 -19 0 -10 -6 -14 -20 -10 -11 3 -23 1 -26 -4 -3 -5 1 -9 8 -9 15
-1 -20 -23 -42 -27 -8 -1 -20 3 -26 8 -14 11 -16 76 -3 85 5 3 9 16 9 28 0 13
7 29 15 36 9 7 13 15 11 18 -7 7 19 65 40 92 37 43 101 53 135 19z m2379 1 c0
-13 -5 -18 -14 -14 -8 3 -12 12 -9 20 8 21 23 17 23 -6z m1967 -42 c-2 -13 -4
-3 -4 22 0 25 2 35 4 23 2 -13 2 -33 0 -45z m-6877 19 c0 -5 -4 -5 -10 -2 -5
3 -10 14 -10 23 0 15 2 15 10 2 5 -8 10 -19 10 -23z m4616 18 c18 -13 18 -14
-4 -8 -12 3 -25 9 -28 14 -8 14 10 11 32 -6z m1326 -21 c25 -13 73 -48 106
-78 236 -219 189 -620 -97 -830 -52 -38 -65 -45 -68 -33 -2 4 -1 7 2 7 3 0 19
16 36 35 17 19 36 32 43 28 6 -3 8 -3 4 2 -4 4 8 29 26 54 88 121 120 232 113
391 -5 120 -27 191 -82 263 -19 24 -32 47 -30 51 3 3 2 4 -2 1 -3 -3 -16 3
-27 14 -12 10 -38 30 -58 44 -28 19 -34 26 -22 31 8 3 12 2 9 -4 -3 -6 -4 -10
-1 -10 2 0 12 -3 22 -7 12 -4 15 -3 10 5 -4 7 -1 12 9 12 9 0 14 4 10 10 -3 5
-13 6 -23 3 -10 -4 -14 -2 -9 3 5 5 -8 17 -30 26 -21 10 -27 15 -13 12 14 -4
46 -17 72 -30z m855 -21 c-3 -10 -5 -2 -5 17 0 19 2 27 5 18 2 -10 2 -26 0
-35z m-5042 27 c3 -5 -1 -10 -10 -10 -9 0 -13 5 -10 10 3 6 8 10 10 10 2 0 7
-4 10 -10z m1839 2 c2 -4 0 -14 -5 -22 -8 -13 -10 -13 -19 0 -5 8 -10 18 -10
23 0 10 28 9 34 -1z m1196 -11 c0 -6 -4 -12 -8 -15 -5 -3 -9 1 -9 9 0 8 4 15
9 15 4 0 8 -4 8 -9z m-3090 -31 c0 -5 -5 -10 -11 -10 -5 0 -7 -4 -4 -10 3 -5
1 -10 -4 -10 -12 0 -15 23 -4 33 10 10 23 8 23 -3z m1008 -12 c57 -12 62 -15
62 -39 0 -15 -6 -32 -14 -38 -8 -7 -13 -23 -11 -37 1 -16 -5 -30 -19 -39 -18
-13 -16 -20 7 -16 14 2 7 -18 -10 -28 -15 -8 -15 -11 -3 -27 13 -16 13 -17 -2
-11 -19 7 -25 -8 -7 -18 7 -5 5 -13 -6 -25 -9 -10 -14 -23 -11 -28 3 -5 -1
-16 -10 -23 -10 -8 -13 -21 -9 -36 4 -16 1 -25 -10 -29 -8 -4 -14 -12 -13 -18
4 -15 -32 -60 -59 -74 -12 -7 -30 -9 -40 -5 -26 9 -73 55 -67 65 3 4 0 8 -6 8
-8 0 -7 6 1 21 6 12 7 19 1 15 -19 -12 -43 5 -36 26 4 14 2 18 -5 14 -14 -9
-31 34 -31 77 0 35 51 118 111 184 19 21 45 53 58 71 18 26 29 32 45 28 11 -3
49 -12 84 -18z m2156 7 c-7 -16 -44 -21 -44 -6 0 8 16 16 42 20 4 0 5 -6 2
-14z m-4819 -38 c29 -50 32 -65 9 -46 -25 21 -56 89 -39 89 2 0 16 -20 30 -43z
m1443 31 c19 -19 15 -48 -7 -48 -20 0 -37 32 -26 50 8 13 18 13 33 -2z m2264
-12 c9 -20 7 -28 -6 -42 -16 -15 -18 -15 -36 1 -20 18 -26 46 -13 58 14 15 44
6 55 -17z m58 9 c0 -8 -4 -15 -10 -15 -5 0 -10 7 -10 15 0 8 5 15 10 15 6 0
10 -7 10 -15z m-1853 -62 c-3 -10 -5 -4 -5 12 0 17 2 24 5 18 2 -7 2 -21 0
-30z m2833 17 c0 -21 -15 -27 -25 -10 -7 12 2 30 16 30 5 0 9 -9 9 -20z
m-3005 -20 c-3 -5 -11 -10 -16 -10 -6 0 -7 5 -4 10 3 6 11 10 16 10 6 0 7 -4
4 -10z m2034 -27 c20 -24 20 -27 5 -44 -13 -15 -20 -16 -35 -6 -25 16 -34 44
-19 62 17 21 26 19 49 -12z m2951 -40 c-18 -94 -28 -127 -44 -148 -13 -17 -13
-13 0 35 9 30 18 72 20 93 6 46 22 92 30 84 3 -3 1 -32 -6 -64z m-5201 48 c19
-12 4 -31 -25 -31 -35 0 -30 34 6 39 3 0 11 -3 19 -8z m1935 -58 c-55 -143
-82 -230 -89 -278 -12 -101 -16 -116 -27 -109 -5 4 -14 0 -19 -7 -4 -7 -12
-10 -16 -5 -4 5 -2 11 5 13 6 3 12 9 12 15 0 6 -6 8 -14 5 -9 -4 -5 12 11 46
14 29 28 54 32 57 3 3 7 14 8 25 10 91 29 153 66 211 13 22 27 51 31 67 3 15
11 27 16 27 5 0 -2 -30 -16 -67z m206 58 c0 -6 -4 -13 -10 -16 -5 -3 -10 1
-10 9 0 9 5 16 10 16 6 0 10 -4 10 -9z m239 -46 c19 -32 19 -34 1 -23 -16 10
-40 48 -40 64 0 12 20 -9 39 -41z m776 -6 c-4 -5 -13 -9 -22 -9 -13 0 -13 3
-3 15 13 15 35 11 25 -6z m-4652 -51 l19 -33 -31 33 c-17 18 -31 37 -31 43 0
18 22 -5 43 -43z m1901 37 c-4 -8 -10 -12 -15 -9 -14 8 -10 24 6 24 9 0 12 -6
9 -15z m2376 6 c0 -11 -26 -22 -34 -14 -12 12 -5 23 14 23 11 0 20 -4 20 -9z
m-2705 -16 c0 -5 -10 -11 -22 -13 -16 -2 -23 2 -23 13 0 11 7 15 23 13 12 -2
22 -7 22 -13z m2241 -10 c13 -20 14 -28 4 -40 -18 -22 -37 -18 -56 10 -13 20
-14 28 -4 40 18 22 37 18 56 -10z m531 -11 c-9 -9 -28 6 -21 18 4 6 10 6 17
-1 6 -6 8 -13 4 -17z m-905 -16 c-8 -8 -9 -4 -5 13 4 13 8 18 11 10 2 -7 -1
-18 -6 -23z m982 26 c23 -9 20 -24 -4 -24 -11 0 -20 7 -20 15 0 17 2 18 24 9z
m166 -2 c0 -14 -11 -21 -26 -15 -8 3 -11 9 -8 14 7 11 34 12 34 1z m-2936 -8
c9 -3 14 -10 11 -14 -6 -10 -45 -1 -45 11 0 10 12 11 34 3z m2864 -5 c-2 -6
-8 -10 -13 -10 -5 0 -11 4 -13 10 -2 6 4 11 13 11 9 0 15 -5 13 -11z m-4453
-30 c25 -30 28 -48 6 -35 -17 11 -53 66 -43 66 6 0 22 -14 37 -31z m1685 11
c0 -11 -4 -20 -10 -20 -5 0 -14 9 -20 20 -9 17 -8 20 10 20 13 0 20 -7 20 -20z
m2170 -5 c10 -12 10 -15 -4 -15 -9 0 -16 7 -16 15 0 8 2 15 4 15 2 0 9 -7 16
-15z m-2000 -36 c0 -6 -4 -7 -10 -4 -5 3 -10 11 -10 16 0 6 5 7 10 4 6 -3 10
-11 10 -16z m-1799 -6 c13 -16 12 -17 -3 -4 -17 13 -22 21 -14 21 2 0 10 -8
17 -17z m63 -22 c11 -12 15 -21 10 -21 -11 1 -35 20 -54 44 -14 18 -14 19 5 9
11 -6 29 -21 39 -32z m2832 -64 c-3 -31 -15 -75 -26 -97 -28 -55 -80 -112 -96
-106 -8 3 -14 0 -14 -7 0 -7 -26 -37 -58 -67 -32 -30 -67 -68 -79 -84 -19 -28
-21 -28 -51 -15 -38 17 -46 33 -30 62 7 12 13 27 13 32 8 72 150 256 197 254
13 0 18 -3 11 -5 -18 -8 -4 -34 18 -34 18 0 18 2 4 23 -8 13 -12 27 -8 32 5 4
-1 5 -12 1 -24 -9 -21 -6 58 60 59 49 62 51 70 30 5 -11 6 -47 3 -79z m-1177
67 c3 -16 1 -17 -13 -5 -19 16 -21 34 -3 29 6 -3 14 -13 16 -24z m231 -22 c0
-21 -2 -24 -10 -12 -13 20 -13 53 0 45 6 -3 10 -18 10 -33z m1843 -32 c-22
-21 -48 -11 -59 22 -4 15 -1 26 12 35 17 12 22 11 42 -13 22 -25 22 -27 5 -44z
m-596 38 c-3 -8 -6 -5 -6 6 -1 11 2 17 5 13 3 -3 4 -12 1 -19z m-1067 2 c0 -5
-4 -10 -10 -10 -5 0 -10 5 -10 10 0 6 5 10 10 10 6 0 10 -4 10 -10z m26 -22
c-12 -7 -13 -14 -6 -34 14 -35 13 -36 -17 -32 -24 3 -28 8 -28 33 0 23 5 31
22 33 16 2 20 8 16 20 -6 15 -5 15 11 3 15 -13 15 -16 2 -23z m4379 -18 c-8
-16 -15 -40 -15 -53 0 -13 -7 -32 -15 -43 -14 -18 -14 -18 -10 4 2 12 7 27 11
33 3 6 0 15 -7 20 -10 6 -10 9 -2 9 7 0 19 14 28 30 9 17 18 30 21 30 2 0 -2
-13 -11 -30z m-4647 2 c3 -9 -2 -13 -14 -10 -9 1 -19 9 -22 16 -3 9 2 13 14
10 9 -1 19 -9 22 -16z m-88 -2 c0 -5 -4 -10 -10 -10 -5 0 -10 5 -10 10 0 6 5
10 10 10 6 0 10 -4 10 -10z m394 -16 c3 -8 2 -12 -4 -9 -6 3 -10 10 -10 16 0
14 7 11 14 -7z m-213 -21 c13 -16 12 -17 -3 -4 -17 13 -22 21 -14 21 2 0 10
-8 17 -17z m59 -18 c0 -8 -2 -15 -4 -15 -2 0 -6 7 -10 15 -3 8 -1 15 4 15 6 0
10 -7 10 -15z m40 -18 c0 -4 -6 -2 -14 5 -8 7 -12 17 -9 22 5 8 23 -12 23 -27z
m860 -36 c0 -59 -29 -161 -60 -215 -16 -28 -63 -98 -105 -155 -41 -57 -75
-112 -75 -122 0 -11 -4 -19 -10 -19 -5 0 -10 -7 -10 -15 0 -8 -6 -15 -13 -15
-21 0 -28 12 -16 27 6 7 8 13 4 13 -4 0 -2 7 6 16 11 13 9 14 -15 8 -27 -6
-27 -6 -25 42 1 27 -1 64 -5 82 -6 24 -3 40 10 59 28 43 137 153 151 153 7 0
13 3 13 8 0 4 18 26 39 49 21 23 49 67 62 98 21 50 25 55 36 39 7 -10 13 -34
13 -53z m-1005 38 c12 -19 -5 -23 -22 -6 -16 16 -16 17 -1 17 9 0 20 -5 23
-11z m1959 -11 c14 -20 14 -24 0 -40 -19 -21 -49 -10 -59 22 -13 42 32 56 59
18z m-1901 -2 c6 -15 -1 -26 -15 -26 -4 0 -8 9 -8 20 0 23 15 27 23 6z m-733
-6 c-8 -5 -22 -10 -30 -10 -13 0 -13 1 0 10 8 5 22 10 30 10 13 0 13 -1 0 -10z
m2725 -10 c10 -11 13 -20 7 -20 -6 0 -16 9 -22 20 -6 11 -9 20 -7 20 2 0 12
-9 22 -20z m-1385 0 c0 -5 -9 -14 -20 -20 -22 -12 -27 -1 -8 18 14 14 28 16
28 2z m-2357 -66 c16 -13 25 -24 20 -24 -10 0 -113 69 -113 76 0 8 63 -27 93
-52z m1827 30 c0 -8 -4 -12 -10 -9 -5 3 -10 10 -10 16 0 5 5 9 10 9 6 0 10 -7
10 -16z m931 -6 c59 -43 81 -114 59 -188 -6 -19 -10 -62 -9 -95 1 -33 2 -77 2
-97 1 -20 5 -34 9 -32 10 6 10 -47 0 -61 -4 -6 -20 -11 -35 -10 -24 0 -28 3
-24 23 3 16 0 22 -8 18 -7 -2 -15 4 -18 15 -3 10 -10 19 -17 19 -7 0 -9 -8 -5
-22 9 -32 41 -73 54 -71 6 2 8 -4 5 -12 -4 -8 -1 -15 7 -15 7 0 10 -2 7 -5 -8
-8 -39 6 -33 15 3 5 1 11 -5 15 -5 3 -14 -5 -20 -19 -12 -32 -28 -33 -62 -2
-28 27 -38 25 -38 -8 0 -17 2 -18 10 -6 7 12 12 12 22 2 9 -9 9 -12 -5 -12 -9
0 -17 -6 -17 -12 0 -7 -5 -5 -11 5 -5 9 -15 17 -20 17 -6 0 -7 -4 -4 -10 4 -6
-6 -10 -22 -10 -21 0 -24 -3 -13 -9 8 -6 19 -7 25 -5 5 3 2 -1 -7 -9 -18 -14
-26 -43 -9 -33 5 3 11 -3 14 -14 3 -11 1 -18 -4 -14 -13 8 -11 -10 4 -25 10
-11 8 -11 -10 -2 -13 6 -23 20 -23 31 0 10 -5 22 -10 25 -8 5 -8 11 0 20 8 10
8 15 0 20 -8 5 -7 11 1 22 10 11 10 16 1 22 -6 4 -9 19 -7 34 3 15 1 27 -5 27
-5 0 -9 -3 -8 -7 3 -10 -49 -63 -61 -63 -5 0 -11 11 -13 25 -3 14 -2 25 1 25
3 0 14 18 23 39 10 22 30 54 46 73 95 110 168 252 187 361 3 20 8 37 11 37 3
0 19 -10 35 -22z m-2373 -5 c-10 -2 -28 -2 -40 0 -13 2 -5 4 17 4 22 1 32 -1
23 -4z m1855 -12 c-2 -10 -16 -24 -29 -30 -27 -12 -28 -12 -14 23 11 31 51 37
43 7z m57 10 c0 -6 -4 -13 -10 -16 -5 -3 -10 1 -10 9 0 9 5 16 10 16 6 0 10
-4 10 -9z m-1460 -21 c-14 -11 -30 -20 -37 -20 -6 0 -20 -3 -30 -7 -12 -4 -10
1 7 14 14 12 37 23 50 26 14 2 27 5 30 5 3 1 -6 -7 -20 -18z m1050 -5 c0 -8
-4 -15 -9 -15 -5 0 -14 7 -21 15 -10 13 -9 15 9 15 12 0 21 -6 21 -15z m160
-13 c0 -13 -12 -22 -22 -16 -10 6 -1 24 13 24 5 0 9 -4 9 -8z m70 -7 c13 -16
8 -18 -27 -9 -13 4 -23 10 -23 15 0 15 37 10 50 -6z m-1966 -1 c9 -3 16 -10
16 -15 0 -13 -23 -10 -44 6 -16 12 -17 15 -4 15 9 0 23 -3 32 -6z m1788 -19
c0 -5 -5 -11 -11 -13 -6 -2 -11 4 -11 13 0 9 5 15 11 13 6 -2 11 -8 11 -13z
m-1637 -5 c7 -12 -12 -12 -40 0 -18 8 -17 9 7 9 15 1 30 -3 33 -9z m1875 0 c0
-5 -7 -10 -15 -10 -8 0 -15 5 -15 10 0 6 7 10 15 10 8 0 15 -4 15 -10z m-1953
-6 c-3 -3 -12 -4 -19 -1 -8 3 -5 6 6 6 11 1 17 -2 13 -5z m6008 -44 c-13 -15
-21 -17 -31 -9 -11 9 -10 15 3 36 14 22 18 23 31 9 14 -14 14 -17 -3 -36z
m-2345 -16 c0 -2 -9 0 -20 6 -11 6 -20 13 -20 16 0 2 9 0 20 -6 11 -6 20 -13
20 -16z m2366 -13 c-1 -31 -16 -33 -16 -2 0 15 8 31 15 31 1 0 2 -13 1 -29z
m-2916 -37 c0 -8 -4 -14 -10 -14 -5 0 -10 9 -10 21 0 11 5 17 10 14 6 -3 10
-13 10 -21z m545 6 c3 -5 -1 -10 -9 -10 -9 0 -16 5 -16 10 0 6 4 10 9 10 6 0
13 -4 16 -10z m2335 -15 c0 -2 -9 -3 -19 -2 -11 0 -18 5 -15 9 4 6 34 0 34 -7z
m-3327 -12 c-7 -3 -13 -11 -13 -19 0 -9 5 -12 10 -9 6 3 10 2 10 -4 0 -11 -18
-24 -38 -27 -6 -1 -10 2 -6 7 3 5 7 19 9 31 5 22 25 41 35 31 3 -3 -1 -8 -7
-10z m457 -58 c0 -8 -4 -15 -10 -15 -5 0 -10 7 -10 15 0 8 5 15 10 15 6 0 10
-7 10 -15z m2890 11 c0 -2 -8 -10 -17 -17 -16 -13 -17 -12 -4 4 13 16 21 21
21 13z m-3880 -20 c0 -15 -14 -35 -21 -30 -15 9 -10 34 6 34 8 0 15 -2 15 -4z
m530 -50 c0 -6 -7 -1 -15 10 -8 10 -15 23 -15 28 0 6 7 1 15 -10 8 -10 15 -23
15 -28z m460 -20 c0 -8 -4 -17 -9 -20 -10 -7 -23 19 -14 28 11 11 23 6 23 -8z
m-990 -50 c-14 -14 -24 0 -16 21 6 15 8 15 16 3 6 -9 5 -19 0 -24z m516 19
c-7 -19 -1 -19 18 1 15 14 16 13 16 -10 0 -16 -5 -25 -12 -23 -8 1 -12 -6 -10
-16 2 -10 -2 -25 -9 -33 -9 -11 -9 -14 2 -14 10 0 9 -5 -4 -17 -9 -9 -20 -13
-24 -9 -5 5 -3 10 2 12 6 2 9 24 7 49 -4 45 2 75 14 75 3 0 4 -7 0 -15z m464
-60 c0 -8 -7 -15 -15 -15 -8 0 -15 7 -15 15 0 8 7 15 15 15 8 0 15 -7 15 -15z
m2060 -19 c0 -2 -7 -7 -16 -10 -8 -3 -12 -2 -9 4 6 10 25 14 25 6z m-3016 -47
c-8 -13 -24 -1 -24 18 0 13 3 13 15 3 8 -7 12 -16 9 -21z m453 -1 c-3 -8 -6
-5 -6 6 -1 11 2 17 5 13 3 -3 4 -12 1 -19z m483 7 c0 -8 -7 -15 -15 -15 -16 0
-20 12 -8 23 11 12 23 8 23 -8z m-420 -36 c0 -5 -8 -9 -17 -9 -13 0 -14 -3 -5
-12 16 -16 15 -48 -2 -48 -13 0 -13 7 -7 77 1 14 31 6 31 -8z m-61 -23 c-1
-17 -2 -17 -6 -3 -2 9 -8 15 -12 13 -4 -3 -8 1 -8 8 0 8 6 12 14 9 7 -3 12
-15 12 -27z m-79 -7 c0 -4 -5 -11 -10 -14 -8 -5 -7 -11 1 -21 7 -9 8 -14 1
-14 -14 0 -22 14 -28 44 -3 20 -1 23 16 19 11 -3 20 -9 20 -14z m35 11 c-7
-12 19 -53 28 -43 4 3 7 1 7 -5 0 -7 -4 -12 -10 -12 -5 0 -9 -3 -8 -7 0 -5 -3
-18 -8 -30 l-9 -22 -12 25 c-6 13 -7 22 -2 18 5 -3 9 -1 9 5 0 5 -5 13 -11 17
-8 4 -7 9 2 15 10 6 11 9 2 9 -15 0 -13 21 2 32 14 11 17 10 10 -2z m469 -5
c-4 -8 -12 -15 -20 -15 -17 0 -18 17 -1 23 22 9 27 7 21 -8z m-804 -5 c8 -5
11 -12 8 -16 -10 -9 -38 3 -38 16 0 12 10 13 30 0z m250 -7 c0 -6 -9 -11 -19
-10 -11 0 -18 4 -15 8 2 4 -2 10 -8 12 -7 3 -1 5 15 4 15 -1 27 -7 27 -14z
m367 -29 c-3 -3 -12 -4 -19 -1 -8 3 -5 6 6 6 11 1 17 -2 13 -5z m91 -12 c3 -9
-2 -13 -14 -10 -9 1 -19 9 -22 16 -3 9 2 13 14 10 9 -1 19 -9 22 -16z m-633
-3 c12 -19 -5 -23 -22 -6 -16 16 -16 17 -1 17 9 0 20 -5 23 -11z m370 -9 c-3
-6 1 -13 9 -16 20 -8 11 -23 -11 -20 -21 3 -29 46 -7 46 8 0 12 -5 9 -10z
m199 -29 c6 -10 -22 -37 -29 -29 -8 7 5 38 15 38 5 0 11 -4 14 -9z m-514 -46
c7 -9 10 -18 7 -22 -8 -7 -37 15 -37 28 0 14 16 11 30 -6z m339 -26 c-8 -4
-19 -3 -26 3 -20 16 -5 30 19 17 16 -9 18 -13 7 -20z m101 23 c0 -14 -11 -21
-26 -15 -8 3 -11 9 -8 14 7 11 34 12 34 1z m-190 -11 c0 -12 -29 -35 -36 -28
-11 10 5 37 21 37 8 0 15 -4 15 -9z m-70 -31 c0 -5 -5 -12 -11 -16 -14 -8 -33
11 -25 25 7 11 36 4 36 -9z m-70 1 c0 -16 -28 -20 -40 -5 -10 12 -8 14 14 14
14 0 26 -4 26 -9z"/>
<path d="M2490 4700 c-12 -8 -11 -10 8 -10 12 0 22 5 22 10 0 13 -11 13 -30 0z"/>
<path d="M2197 3719 c7 -7 15 -10 18 -7 3 3 -2 9 -12 12 -14 6 -15 5 -6 -5z"/>
<path d="M2218 3693 c10 -4 10 -8 0 -21 -9 -10 -9 -13 -1 -9 9 5 11 -3 8 -30
l-5 -38 9 35 c5 19 7 38 5 42 -3 5 1 8 8 8 9 0 9 3 -2 10 -8 5 -19 9 -25 9 -5
0 -4 -3 3 -6z"/>
<path d="M2241 3564 c0 -11 3 -14 6 -6 3 7 2 16 -1 19 -3 4 -6 -2 -5 -13z"/>
<path d="M2212 3488 c7 -15 15 -23 17 -17 2 6 -4 18 -13 27 -15 15 -15 15 -4
-10z"/>
<path d="M2196 3443 c-6 -14 -5 -15 5 -6 7 7 10 15 7 18 -3 3 -9 -2 -12 -12z"/>
<path d="M5755 4400 c-3 -5 -1 -10 4 -10 6 0 11 5 11 10 0 6 -2 10 -4 10 -3 0
-8 -4 -11 -10z"/>
<path d="M5500 4200 c0 -5 5 -10 10 -10 6 0 10 5 10 10 0 6 -4 10 -10 10 -5 0
-10 -4 -10 -10z"/>
<path d="M3685 4140 c-3 -6 1 -7 9 -4 18 7 21 14 7 14 -6 0 -13 -4 -16 -10z"/>
<path d="M5120 4200 c0 -5 5 -10 10 -10 6 0 10 5 10 10 0 6 -4 10 -10 10 -5 0
-10 -4 -10 -10z"/>
<path d="M5960 4041 c0 -6 4 -13 10 -16 6 -3 7 1 4 9 -7 18 -14 21 -14 7z"/>
<path d="M5960 3995 c0 -8 4 -15 8 -15 5 0 9 7 9 15 0 8 -4 15 -9 15 -4 0 -8
-7 -8 -15z"/>
<path d="M5130 3758 c0 -18 18 -34 28 -24 3 4 -2 14 -11 23 -16 16 -17 16 -17
1z"/>
<path d="M5153 3696 c-27 -13 -28 -19 -7 -40 17 -18 54 -22 54 -6 0 6 -7 10
-15 10 -11 0 -12 5 -5 25 10 27 7 28 -27 11z"/>
<path d="M8612 3260 c0 -14 2 -19 5 -12 2 6 2 18 0 25 -3 6 -5 1 -5 -13z"/>
<path d="M8542 3160 c1 -60 17 -97 19 -43 1 15 3 40 4 55 2 15 -3 32 -10 38
-12 10 -14 1 -13 -50z"/>
<path d="M8633 3165 c0 -22 2 -30 4 -17 2 12 2 30 0 40 -3 9 -5 -1 -4 -23z"/>
<path d="M8641 2995 c0 -35 1 -37 10 -17 6 15 5 30 -1 40 -7 13 -9 8 -9 -23z"/>
<path d="M8405 2401 c-3 -5 -2 -12 3 -15 5 -3 9 1 9 9 0 17 -3 19 -12 6z"/>
<path d="M5415 3640 c-3 -6 1 -7 9 -4 18 7 21 14 7 14 -6 0 -13 -4 -16 -10z"/>
<path d="M5825 3590 c-3 -5 -1 -10 4 -10 6 0 11 5 11 10 0 6 -2 10 -4 10 -3 0
-8 -4 -11 -10z"/>
<path d="M6200 3460 c-9 -6 -10 -10 -3 -10 6 0 15 5 18 10 8 12 4 12 -15 0z"/>
<path d="M6330 3430 c0 -5 7 -10 15 -10 8 0 15 5 15 10 0 6 -7 10 -15 10 -8 0
-15 -4 -15 -10z"/>
<path d="M6266 3422 c-4 -4 -12 -8 -17 -8 -5 -1 -14 -2 -19 -3 -6 0 -16 -13
-22 -28 -17 -42 -17 -52 -2 -46 7 3 13 8 12 11 0 4 0 18 1 31 1 18 4 21 14 12
10 -8 19 -6 35 9 20 19 23 19 46 5 16 -11 26 -13 31 -6 3 6 -1 11 -9 11 -9 0
-16 4 -16 8 0 10 -45 14 -54 4z"/>
<path d="M6487 3413 c-13 -12 -7 -25 6 -14 8 6 16 8 19 5 3 -3 9 -1 13 5 7 12
-27 15 -38 4z"/>
<path d="M6135 3400 c3 -5 8 -10 11 -10 2 0 4 5 4 10 0 6 -5 10 -11 10 -5 0
-7 -4 -4 -10z"/>
<path d="M6445 3400 c-3 -6 1 -7 9 -4 18 7 21 14 7 14 -6 0 -13 -4 -16 -10z"/>
<path d="M6111 3378 c-1 -13 7 -18 23 -18 14 0 28 -5 31 -11 5 -6 12 -4 20 8
16 22 1 43 -17 25 -16 -16 -45 -15 -51 1 -3 7 -6 5 -6 -5z m79 -2 c0 -2 -7 -7
-16 -10 -8 -3 -12 -2 -9 4 6 10 25 14 25 6z"/>
<path d="M6237 3349 c6 -6 9 -18 6 -25 -6 -16 13 -19 22 -4 8 12 -12 40 -28
40 -8 0 -8 -3 0 -11z"/>
<path d="M6476 3344 c-4 -10 -13 -13 -28 -9 -20 5 -20 4 -6 -5 13 -8 24 -7 44
3 21 11 23 15 11 20 -9 3 -18 -1 -21 -9z"/>
<path d="M6300 3290 c0 -5 5 -10 10 -10 6 0 10 5 10 10 0 6 -4 10 -10 10 -5 0
-10 -4 -10 -10z"/>
<path d="M1425 3419 c-4 -6 -5 -12 -2 -15 2 -3 7 2 10 11 7 17 1 20 -8 4z"/>
<path d="M4425 3280 c-3 -5 1 -10 10 -10 9 0 13 5 10 10 -3 6 -8 10 -10 10 -2
0 -7 -4 -10 -10z"/>
<path d="M4650 3239 c0 -7 -8 -18 -17 -25 -15 -12 -16 -13 -2 -8 10 3 25 -4
38 -17 l21 -23 0 28 c0 15 -6 34 -14 42 -18 17 -26 18 -26 3z"/>
<path d="M4540 3019 c0 -5 5 -7 10 -4 6 3 10 8 10 11 0 2 -4 4 -10 4 -5 0 -10
-5 -10 -11z"/>
<path d="M6130 3226 c0 -2 8 -10 18 -17 15 -13 16 -12 3 4 -13 16 -21 21 -21
13z"/>
<path d="M6087 3203 c-13 -13 -7 -25 7 -14 11 9 17 8 29 -3 8 -8 17 -12 21 -9
3 4 6 1 6 -6 0 -7 4 -10 9 -7 5 4 12 0 14 -6 4 -9 6 -9 6 -1 1 6 -14 21 -33
32 -35 22 -48 25 -59 14z"/>
<path d="M6184 3182 c10 -12 23 -19 28 -16 11 7 11 7 -22 24 -25 13 -25 13 -6
-8z"/>
<path d="M5935 3180 c-16 -7 -17 -9 -3 -9 9 -1 20 4 23 9 7 11 7 11 -20 0z"/>
<path d="M6240 3106 c0 -2 7 -7 16 -10 8 -3 12 -2 9 4 -6 10 -25 14 -25 6z"/>
<path d="M6343 3063 c-20 -7 -15 -22 7 -20 20 1 27 12 13 20 -5 2 -14 2 -20 0z"/>
<path d="M4070 2970 c0 -5 5 -10 10 -10 6 0 10 5 10 10 0 6 -4 10 -10 10 -5 0
-10 -4 -10 -10z"/>
<path d="M7557 2953 c-11 -11 -8 -21 9 -27 13 -5 14 -4 6 7 -7 8 -9 17 -5 20
3 4 4 7 1 7 -2 0 -8 -3 -11 -7z"/>
<path d="M7544 2084 c-18 -14 -18 -15 4 -4 12 6 22 13 22 15 0 8 -5 6 -26 -11z"/>
<path d="M4426 2283 c-6 -14 -5 -15 5 -6 7 7 10 15 7 18 -3 3 -9 -2 -12 -12z"/>
<path d="M4406 2251 c-4 -7 -5 -15 -2 -18 9 -9 19 4 14 18 -4 11 -6 11 -12 0z"/>
<path d="M4500 2159 c0 -5 5 -7 10 -4 6 3 10 8 10 11 0 2 -4 4 -10 4 -5 0 -10
-5 -10 -11z"/>
<path d="M4465 2060 c-3 -6 1 -7 9 -4 18 7 21 14 7 14 -6 0 -13 -4 -16 -10z"/>
<path d="M4785 2170 c-3 -5 -13 -7 -23 -4 -14 5 -14 4 -3 -4 15 -11 41 -5 41
9 0 12 -7 11 -15 -1z"/>
<path d="M4729 2120 c-13 -10 -20 -19 -16 -20 4 0 2 -6 -5 -14 -7 -8 -17 -11
-22 -8 -5 3 -5 -1 0 -9 5 -8 9 -18 9 -24 2 -17 17 -45 24 -45 4 0 7 10 7 23
-1 12 4 21 11 20 7 -2 10 4 7 12 -4 8 -10 12 -15 9 -5 -3 -6 2 -3 10 3 9 10
16 16 16 5 0 8 8 6 18 -2 9 3 16 10 15 6 -2 12 2 12 7 0 16 -16 12 -41 -10z"/>
<path d="M4779 2091 c12 -22 46 -30 39 -8 -3 6 -9 12 -14 12 -5 0 -15 4 -22 9
-11 7 -12 4 -3 -13z"/>
<path d="M4834 2025 c-10 -8 -14 -15 -8 -15 5 0 16 6 23 13 10 10 11 8 5 -7
-5 -13 -4 -17 4 -12 14 8 16 36 4 36 -5 0 -17 -7 -28 -15z"/>
<path d="M4680 2016 c0 -9 5 -16 10 -16 6 0 10 4 10 9 0 6 -4 13 -10 16 -5 3
-10 -1 -10 -9z"/>
<path d="M4760 1980 c0 -5 4 -10 9 -10 6 0 13 5 16 10 3 6 -1 10 -9 10 -9 0
-16 -4 -16 -10z"/>
<path d="M4740 1960 c0 -5 5 -10 11 -10 5 0 7 5 4 10 -3 6 -8 10 -11 10 -2 0
-4 -4 -4 -10z"/>
<path d="M8266 2365 c-9 -26 -7 -32 5 -12 6 10 9 21 6 23 -2 3 -7 -2 -11 -11z"/>
</g>
</svg>
