<?xml version="1.0" standalone="no"?>
<!DOCTYPE svg PUBLIC "-//W3C//DTD SVG 20010904//EN"
 "http://www.w3.org/TR/2001/REC-SVG-20010904/DTD/svg10.dtd">
<svg version="1.0" xmlns="http://www.w3.org/2000/svg"
 width="64.000000pt" height="64.000000pt" viewBox="0 0 64.000000 64.000000"
 preserveAspectRatio="xMidYMid meet">

<g transform="translate(0.000000,64.000000) scale(0.100000,-0.100000)"
fill="#000000" stroke="none">
<path d="M295 620 c9 -15 -54 -43 -69 -31 -17 14 -41 -12 -32 -34 8 -22 -11
-65 -29 -65 -26 0 -18 -44 12 -57 32 -15 53 -2 53 34 0 58 60 100 118 84 24
-7 34 -5 58 16 18 16 22 23 11 19 -20 -6 -77 19 -77 34 0 6 -12 10 -26 10 -14
0 -23 -4 -19 -10z"/>
<path d="M103 468 c-19 -23 -50 -92 -58 -125 -10 -48 2 -40 15 10 6 23 23 59
36 80 24 37 29 62 7 35z"/>
</g>
</svg>
